# xmcd CD database file
#
# Track frame offsets:
#	150
#	17595
#	37947
#	66904
#	84852
#	103640
#	126030
#
# Disc length: 1963 seconds
#
# Revision: 0
# Processed by: cddbd v1.5.1PL0 Copyright (c) Steve Scherf et al.
# Submitted via: CDex 1.50Beta7
#
DISCID=4a07a907
DTITLE=久保亜沙香 - CHOOSE
DYEAR=2004
DGENRE=JPop
TTITLE0=Realize
TTITLE1=カーテンコール
TTITLE2=幸せの形
TTITLE3=夢の終わり
TTITLE4=happy PERFUME
TTITLE5=暖かい雨
TTITLE6=pharase of the heart
EXTD=YEAR: 2004
EXTT0=
EXTT1=
EXTT2=
EXTT3=
EXTT4=
EXTT5=
EXTT6=
PLAYORDER=
